{
	"asset":{
		"generator":"Khronos glTF Blender I/O v3.5.30",
		"version":"2.0"
	},
	"scene":0,
	"scenes":[
		{
			"name":"Scene",
			"nodes":[
				0
			]
		}
	],
	"nodes":[
		{
			"mesh":0,
			"name":"Cube",
			"translation":[
				0,
				1,
				0
			]
		}
	],
	"materials":[
		{
			"doubleSided":true,
			"name":"mat_simple_cube",
			"pbrMetallicRoughness":{
				"baseColorFactor":[
					0.028884269297122955,
					0.35949283838272095,
					0.8000000715255737,
					1
				],
				"metallicFactor":0,
				"roughnessFactor":0.5
			}
		}
	],
	"meshes":[
		{
			"name":"Cube",
			"primitives":[
				{
					"attributes":{
						"POSITION":0,
						"TEXCOORD_0":1,
						"NORMAL":2
					},
					"indices":3,
					"material":0
				}
			]
		}
	],
	"accessors":[
		{
			"bufferView":0,
			"componentType":5126,
			"count":152,
			"max":[
				1,
				1,
				1
			],
			"min":[
				-1,
				-1,
				-1
			],
			"type":"VEC3"
		},
		{
			"bufferView":1,
			"componentType":5126,
			"count":152,
			"type":"VEC2"
		},
		{
			"bufferView":2,
			"componentType":5126,
			"count":152,
			"type":"VEC3"
		},
		{
			"bufferView":3,
			"componentType":5123,
			"count":564,
			"type":"SCALAR"
		}
	],
	"bufferViews":[
		{
			"buffer":0,
			"byteLength":1824,
			"byteOffset":0,
			"target":34962
		},
		{
			"buffer":0,
			"byteLength":1216,
			"byteOffset":1824,
			"target":34962
		},
		{
			"buffer":0,
			"byteLength":1824,
			"byteOffset":3040,
			"target":34962
		},
		{
			"buffer":0,
			"byteLength":1128,
			"byteOffset":4864,
			"target":34963
		}
	],
	"buffers":[
		{
			"byteLength":5992,
			"uri":"data:application/octet-stream;base64,"
		}
	]
}
