{
	"asset":{
		"generator":"Khronos glTF Blender I/O v3.5.30",
		"version":"2.0"
	},
	"scene":0,
	"scenes":[
		{
			"name":"Scene",
			"nodes":[
				0
			]
		}
	],
	"nodes":[
		{
			"mesh":0,
			"name":"Potion",
			"translation":[
				0,
				1,
				0
			]
		}
	],
	"materials":[
		{
			"doubleSided":true,
			"name":"mat_potion",
			"pbrMetallicRoughness":{
				"baseColorFactor":[
					1,
					0.11346566677093506,
					0.14883750677108765,
					1
				],
				"metallicFactor":0,
				"roughnessFactor":0.5
			}
		},
		{
			"doubleSided":true,
			"name":"mat_bouchon",
			"pbrMetallicRoughness":{
				"baseColorFactor":[
					0.17335452139377594,
					0.05253782123327255,
					0.002744784578680992,
					1
				],
				"metallicFactor":0,
				"roughnessFactor":0.5
			}
		}
	],
	"meshes":[
		{
			"name":"Cube.001",
			"primitives":[
				{
					"attributes":{
						"POSITION":0,
						"TEXCOORD_0":1,
						"NORMAL":2
					},
					"indices":3,
					"material":0
				},
				{
					"attributes":{
						"POSITION":4,
						"TEXCOORD_0":5,
						"NORMAL":6
					},
					"indices":7,
					"material":1
				}
			]
		}
	],
	"accessors":[
		{
			"bufferView":0,
			"componentType":5126,
			"count":104,
			"max":[
				0.9069615602493286,
				0.6775164604187012,
				0.9069615602493286
			],
			"min":[
				-0.9069615602493286,
				-1,
				-0.9069615602493286
			],
			"type":"VEC3"
		},
		{
			"bufferView":1,
			"componentType":5126,
			"count":104,
			"type":"VEC2"
		},
		{
			"bufferView":2,
			"componentType":5126,
			"count":104,
			"type":"VEC3"
		},
		{
			"bufferView":3,
			"componentType":5123,
			"count":162,
			"type":"SCALAR"
		},
		{
			"bufferView":4,
			"componentType":5126,
			"count":69,
			"max":[
				0.3882829248905182,
				0.9985489845275879,
				0.3882829248905182
			],
			"min":[
				-0.3882829248905182,
				0.6775164604187012,
				-0.3882829248905182
			],
			"type":"VEC3"
		},
		{
			"bufferView":5,
			"componentType":5126,
			"count":69,
			"type":"VEC2"
		},
		{
			"bufferView":6,
			"componentType":5126,
			"count":69,
			"type":"VEC3"
		},
		{
			"bufferView":7,
			"componentType":5123,
			"count":162,
			"type":"SCALAR"
		}
	],
	"bufferViews":[
		{
			"buffer":0,
			"byteLength":1248,
			"byteOffset":0,
			"target":34962
		},
		{
			"buffer":0,
			"byteLength":832,
			"byteOffset":1248,
			"target":34962
		},
		{
			"buffer":0,
			"byteLength":1248,
			"byteOffset":2080,
			"target":34962
		},
		{
			"buffer":0,
			"byteLength":324,
			"byteOffset":3328,
			"target":34963
		},
		{
			"buffer":0,
			"byteLength":828,
			"byteOffset":3652,
			"target":34962
		},
		{
			"buffer":0,
			"byteLength":552,
			"byteOffset":4480,
			"target":34962
		},
		{
			"buffer":0,
			"byteLength":828,
			"byteOffset":5032,
			"target":34962
		},
		{
			"buffer":0,
			"byteLength":324,
			"byteOffset":5860,
			"target":34963
		}
	],
	"buffers":[
		{
			"byteLength":6184,
			"uri":"data:application/octet-stream;base64,"
		}
	]
}
