{
	"asset":{
		"generator":"Khronos glTF Blender I/O v3.5.30",
		"version":"2.0"
	},
	"scene":0,
	"scenes":[
		{
			"name":"Scene",
			"nodes":[
				0
			]
		}
	],
	"nodes":[
		{
			"mesh":0,
			"name":"Staff",
			"translation":[
				-1.275559663772583,
				0.22293782234191895,
				0.008860006928443909
			]
		}
	],
	"materials":[
		{
			"doubleSided":true,
			"name":"mat_wood",
			"pbrMetallicRoughness":{
				"baseColorFactor":[
					0.16794857382774353,
					0.05779599770903587,
					0.013231741264462471,
					1
				],
				"metallicFactor":0,
				"roughnessFactor":0.8134714961051941
			}
		}
	],
	"meshes":[
		{
			"name":"Vert",
			"primitives":[
				{
					"attributes":{
						"POSITION":0,
						"NORMAL":1
					},
					"indices":2,
					"material":0
				}
			]
		}
	],
	"accessors":[
		{
			"bufferView":0,
			"componentType":5126,
			"count":570,
			"max":[
				0.1068691685795784,
				2.83880615234375,
				0.3485196828842163
			],
			"min":[
				-0.10686878114938736,
				-0.051687560975551605,
				-0.5545704364776611
			],
			"type":"VEC3"
		},
		{
			"bufferView":1,
			"componentType":5126,
			"count":570,
			"type":"VEC3"
		},
		{
			"bufferView":2,
			"componentType":5123,
			"count":3408,
			"type":"SCALAR"
		}
	],
	"bufferViews":[
		{
			"buffer":0,
			"byteLength":6840,
			"byteOffset":0,
			"target":34962
		},
		{
			"buffer":0,
			"byteLength":6840,
			"byteOffset":6840,
			"target":34962
		},
		{
			"buffer":0,
			"byteLength":6816,
			"byteOffset":13680,
			"target":34963
		}
	],
	"buffers":[
		{
			"byteLength":20496,
			"uri":"data:application/octet-stream;base64,"
		}
	]
}
